<svg width='24' height='24' viewBox='0 0 24 24' xmlns='http://www.w3.org/2000/svg' xmlns:xlink='http://www.w3.org/1999/xlink'><rect width='24' height='24' stroke='none' fill='#000000' opacity='0'/>
<g transform="matrix(0.83 0 0 0.83 12 12)" >
<path style="stroke: none; stroke-width: 1; stroke-dasharray: none; stroke-linecap: butt; stroke-dashoffset: 0; stroke-linejoin: miter; stroke-miterlimit: 4; fill: rgb(0,0,0); fill-rule: nonzero; opacity: 1;" transform=" translate(-15, -15)" d="M 5 3 C 3.9069372 3 3 3.9069372 3 5 L 3 9 C 2.994899710454515 9.36063591657757 3.184375296169332 9.696081364571606 3.495872849714331 9.877887721486518 C 3.8073704032593296 10.059694078401428 4.192629596740671 10.059694078401428 4.50412715028567 9.877887721486516 C 4.815624703830668 9.696081364571606 5.005100289545485 9.360635916577568 5 9 L 5 5 L 9 5 C 9.36063591657757 5.005100289545485 9.696081364571606 4.815624703830668 9.877887721486516 4.50412715028567 C 10.059694078401428 4.19262959674067 10.059694078401428 3.8073704032593296 9.877887721486516 3.4958728497143308 C 9.696081364571606 3.184375296169332 9.36063591657757 2.994899710454515 9 3 L 5 3 z M 21 3 C 20.459452388719907 2.99734845244301 20.014623467311797 3.4246961306961725 19.995612937951346 3.96491585501073 C 19.9766024085909 4.505135579325288 20.390291132854042 4.962694807018275 20.929688 4.9980469 C 20.953095181551966 4.999522185195444 20.97654701574961 5.000173621328273 21 5 L 25 5 L 25 9 C 24.99307283735792 9.524806577089254 25.39301815515821 9.965684447971345 25.916016 10.009766 C 25.9491334277558 10.012722983573617 25.98237771394456 10.014026602542318 26.015625 10.013672 C 26.56714119656684 10.00505092693704 27.00755272012661 9.551531861631764 27 9 L 27 5 C 27 3.9069372 26.093063 3 25 3 L 21 3 z M 8.0039062 11.900391 C 6.2389062 11.900391 5.1015625 13.086047 5.1015625 14.998047 C 5.1015625 16.914047 6.2269062 18.099609 8.0039062 18.099609 C 9.7729062 18.099609 10.898438 16.914047 10.898438 14.998047 C 10.898437 13.086047 9.7729063 11.900391 8.0039062 11.900391 z M 15.097656 11.900391 C 13.332656 11.900391 12.253906 13.078047 12.253906 14.998047 C 12.253906 16.918047 13.337656 18.099609 15.097656 18.099609 C 16.606656 18.099609 17.697094 17.149687 17.746094 15.804688 L 16.3125 15.804688 C 16.2265 16.436688 15.745563 16.853516 15.101562 16.853516 C 14.277563 16.853516 13.775391 16.144141 13.775391 14.994141 C 13.775391 13.848141 14.278656 13.146484 15.097656 13.146484 C 15.741656 13.146484 16.227687 13.57875 16.304688 14.21875 L 17.742188 14.21875 C 17.698187 12.88575 16.577656 11.900391 15.097656 11.900391 z M 19 12 L 19 18 L 20.525391 18 L 20.525391 15.900391 L 21.316406 15.900391 L 22.34375 18 L 24.056641 18 L 22.857422 15.675781 C 23.514422 15.389781 23.880859 14.714516 23.880859 13.978516 C 23.880859 12.739516 23.041625 12 21.640625 12 L 19 12 z M 8.0039062 13.138672 C 8.8279062 13.138672 9.3789062 13.865047 9.3789062 14.998047 C 9.3789063 16.135047 8.8309062 16.861328 8.0039062 16.861328 C 7.1679062 16.861328 6.6269531 16.135047 6.6269531 14.998047 C 6.6269531 13.865047 7.1769063 13.138672 8.0039062 13.138672 z M 20.525391 13.150391 L 21.423828 13.150391 C 21.968828 13.150391 22.322266 13.479234 22.322266 13.990234 C 22.322266 14.510234 21.988734 14.822266 21.427734 14.822266 L 20.525391 14.822266 L 20.525391 13.150391 z M 3.984375 19.986328 C 3.43285880343316 19.994949073062962 2.992447279873388 20.448468138368238 3 21 L 3 25 C 3 26.093063 3.9069372 27 5 27 L 9 27 C 9.03324741940079 27.000354615845236 9.066491839420168 26.999050996863538 9.0996094 26.996094 C 9.16644271731093 26.990370723608383 9.232530695632416 26.977938120683646 9.296875 26.958984 C 9.328656319236353 26.949477989357344 9.359944998017463 26.938396624007275 9.390625 26.925781 C 9.835227441794979 26.744057733799544 10.087859620562273 26.271934563936995 9.992378715263058 25.80121376191964 C 9.896897809963843 25.330492959902287 9.480270889946242 24.994122160357467 9 25 L 5 25 L 5 21 C 5.0037014610101975 20.729699667173673 4.897823324754008 20.46941334607979 4.706490332869745 20.27844827870817 C 4.515157340985481 20.087483211336544 4.254667707530458 19.98210627103109 3.9843749999999996 19.986328 z M 25.984375 19.986328 C 25.459580437729688 19.99482121813894 25.030637087323253 20.40756210281249 25.001953 20.931641 C 25.000522897192806 20.954398406155736 24.999871516474432 20.9771980654119 25 21 L 25 25 L 21 25 C 20.459451752315033 24.997347557871176 20.014621839570697 25.424695483939736 19.995611288624982 25.964915848677382 C 19.976600737679266 26.505136213415028 20.3902904350163 26.962695756539663 20.929688 26.998047 C 20.953095182726006 26.999522251839874 20.976547016922506 27.000173654618713 21 27 L 25 27 C 26.093063 27 27 26.093063 27 25 L 27 21 C 27.0037014610102 20.729699667173673 26.897823324754008 20.46941334607979 26.706490332869745 20.27844827870817 C 26.515157340985482 20.087483211336544 26.25466770753046 19.98210627103109 25.984375 19.986328 z" stroke-linecap="round" />
</g>
</svg>